/* XPM */
static char * bullet_xpm[] = {
"12 12 2 1",
" 	c None",
".	c #BFBFBF",
"            ",
"            ",
"            ",
"            ",
"       .    ",
"       ..   ",
"       ...  ",
"       ..   ",
"       .    ",
"            ",
"            ",
"            "};
