/* XPM */
static char * button_pressed2_xpm[] = {
"21 21 29 1",
" 	c None",
".	c #919191",
"+	c #434343",
"@	c #3F3F3F",
"#	c #404040",
"$	c #3C3C3C",
"%	c #3D3D3D",
"&	c #383838",
"*	c #393939",
"=	c #000000",
"-	c #353535",
";	c #363636",
">	c #22489F",
",	c #323232",
"'	c #333333",
")	c #313131",
"!	c #1D59A8",
"~	c #0BA4CF",
"{	c #00D7ED",
"]	c #0F91C5",
"^	c #00D6EC",
"/	c #00DFF5",
"(	c #00DEF4",
"_	c #00D5EB",
":	c #00DDF2",
"<	c #00DCF2",
"[	c #02CAE5",
"}	c #186CB1",
"|	c #06B7DB",
".....................",
"+++++++++++++++++++++",
"@###@@###@@###@@###@@",
"$%$$$$%$$$$%$$$$%$$$$",
"&****&==**&==**&****&",
"-;;;-=>>=-=>>=--;;;--",
",',,=>>>>=>>>>=,',,,,",
"))))=>>>>=!>>>=))))))",
")))))=>>~{{]>=)))))))",
"))))))==^/(==))))))))",
")))))=>>_:<[>=)))))))",
"))))=>>>}=|}>>=))))))",
"))))=>>>>=>>>>=))))))",
")))))=>>=)=>>=)))))))",
"))))))==)))==))))))))",
")))))))))))))))))))))",
")))))))))))))))))))))",
")))))))))))))))))))))",
")))))))))))))))))))))",
")))))))))))))))))))))",
"....................."};
