/* XPM */
static char * button2_xpm[] = {
"21 21 42 1",
" 	c None",
".	c #919191",
"+	c #434343",
"@	c #3F3F3F",
"#	c #404040",
"$	c #3C3C3C",
"%	c #3D3D3D",
"&	c #383838",
"*	c #393939",
"=	c #000000",
"-	c #353535",
";	c #363636",
">	c #1E77DB",
",	c #323232",
"'	c #333333",
")	c #313131",
"!	c #00B0C8",
"~	c #00B6CE",
"{	c #02ABC7",
"]	c #02ABC8",
"^	c #00BED5",
"/	c #00C8DF",
"(	c #00C7DE",
"_	c #00BCD3",
":	c #0A9BCC",
"<	c #00C6DD",
"[	c #00D7ED",
"}	c #00D5EB",
"|	c #00B4CB",
"1	c #00C4DB",
"2	c #00D2E8",
"3	c #00D1E7",
"4	c #00C2D9",
"5	c #00B2C9",
"6	c #0E93CE",
"7	c #00B9D0",
"8	c #00C1D8",
"9	c #00B8CF",
"0	c #1684D4",
"a	c #128BD1",
"b	c #00B0C7",
"c	c #1A7DD7",
".....................",
"+++++++++++++++++++++",
"@###@@###@@###@@###@@",
"$%$$$$%$$$$%$$$$%$$$$",
"&****&==**&==**&****&",
"-;;;-=>>=-=>>=--;;;--",
",',,=>>>>=>>>>=,',,,,",
"))))=>>>!=~{>>=))))))",
")))))=>]^/(_:=)))))))",
"))))))==<[}==))))))))",
")))))=>|12345=)))))))",
"))))=>>67=890>=))))))",
"))))=>>>a=bc>>=))))))",
")))))=>>=)=>>=)))))))",
"))))))==)))==))))))))",
")))))))))))))))))))))",
")))))))))))))))))))))",
")))))))))))))))))))))",
")))))))))))))))))))))",
")))))))))))))))))))))",
"....................."};
