/* XPM */
static char * button_pressed_xpm[] = {
"21 21 45 1",
" 	c None",
".	c #919191",
"+	c #434343",
"@	c #3F3F3F",
"#	c #404040",
"$	c #3C3C3C",
"%	c #3D3D3D",
"&	c #383838",
"*	c #393939",
"=	c #000000",
"-	c #353535",
";	c #363636",
">	c #00BED5",
",	c #323232",
"'	c #333333",
")	c #00C2D8",
"!	c #00C4DB",
"~	c #313131",
"{	c #00CAE1",
"]	c #00CEE4",
"^	c #00CAE0",
"/	c #00C3DA",
"(	c #00C1D8",
"_	c #00D2E8",
":	c #00D7ED",
"<	c #00D1E7",
"[	c #00C9DF",
"}	c #00D6EC",
"|	c #00DFF5",
"1	c #00DEF4",
"2	c #00C3D9",
"3	c #00CCE3",
"4	c #00D5EB",
"5	c #00DDF2",
"6	c #00DCF2",
"7	c #00D4EA",
"8	c #00CBE1",
"9	c #00C0D7",
"0	c #00C8DE",
"a	c #00CFE5",
"b	c #00D3EA",
"c	c #00C7DE",
"d	c #00BFD6",
"e	c #00C7DD",
"f	c #00BFD5",
".....................",
"+++++++++++++++++++++",
"@###@@###@@###@@###@@",
"$%$$$$%$$$$%$$$$%$$$$",
"&****&==**&==**&****&",
"-;;;-=>>=-=>>=--;;;--",
",',,=>>>)=!)>>=,',,,,",
"~~~~=>>!{=]^/>=~~~~~~",
"~~~~~=(^_::<[=~~~~~~~",
"~~~~~~==}|1==~~~~~~~~",
"~~~~~=2345678=~~~~~~~",
"~~~~=>90a=bacd=~~~~~~",
"~~~~=>>)0=^e(>=~~~~~~",
"~~~~~=>>=~=f>=~~~~~~~",
"~~~~~~==~~~==~~~~~~~~",
"~~~~~~~~~~~~~~~~~~~~~",
"~~~~~~~~~~~~~~~~~~~~~",
"~~~~~~~~~~~~~~~~~~~~~",
"~~~~~~~~~~~~~~~~~~~~~",
"~~~~~~~~~~~~~~~~~~~~~",
"....................."};
