/* XPM */
static char * close_pressed_xpm[] = {
"21 21 4 1",
" 	c None",
".	c #2C2C2C",
"+	c #FFFFFF",
"@	c #262626",
".....................",
".....................",
".....................",
".....................",
".....................",
".....................",
".....................",
".....................",
".......++..++........",
".......++++++........",
"........++++.........",
"@@@@@@@@++++@@@@@@@@@",
"@@@@@@@++++++@@@@@@@@",
"@@@@@@@++@@++@@@@@@@@",
"@@@@@@@@@@@@@@@@@@@@@",
"@@@@@@@@@@@@@@@@@@@@@",
"@@@@@@@@@@@@@@@@@@@@@",
"@@@@@@@@@@@@@@@@@@@@@",
"@@@@@@@@@@@@@@@@@@@@@",
"@@@@@@@@@@@@@@@@@@@@@",
"@@@@@@@@@@@@@@@@@@@@@"};
