/* XPM */
static char * max_unfocus_xpm[] = {
"21 21 4 1",
" 	c None",
".	c #2C2C2C",
"+	c #C0C0C0",
"@	c #262626",
".....................",
".....................",
".....................",
".....................",
".....................",
".....................",
".....................",
".....................",
".........++++........",
"..........+++........",
".......+...++........",
"@@@@@@@++@@@+@@@@@@@@",
"@@@@@@@+++@@@@@@@@@@@",
"@@@@@@@++++@@@@@@@@@@",
"@@@@@@@@@@@@@@@@@@@@@",
"@@@@@@@@@@@@@@@@@@@@@",
"@@@@@@@@@@@@@@@@@@@@@",
"@@@@@@@@@@@@@@@@@@@@@",
"@@@@@@@@@@@@@@@@@@@@@",
"@@@@@@@@@@@@@@@@@@@@@",
"@@@@@@@@@@@@@@@@@@@@@"};
