/* XPM */
static char * menu_xpm[] = {
"10 18 3 1",
" 	c None",
".	c #2C2C2C",
"+	c #262626",
"..........",
"..........",
"..........",
"..........",
"..........",
"..........",
"..........",
"..........",
"..........",
"++++++++++",
"++++++++++",
"++++++++++",
"++++++++++",
"++++++++++",
"++++++++++",
"++++++++++",
"++++++++++",
"++++++++++"};
