/* XPM */
static char * close_focus_xpm[] = {
"21 21 52 1",
" 	c None",
".	c #919191",
"+	c #434343",
"@	c #3F3F3F",
"#	c #404040",
"$	c #3C3C3C",
"%	c #3D3D3D",
"&	c #383838",
"*	c #393939",
"=	c #000000",
"-	c #353535",
";	c #363636",
">	c #0199B1",
",	c #323232",
"'	c #333333",
")	c #00A1B8",
"!	c #00A5BD",
"~	c #00A0B7",
"{	c #313131",
"]	c #00B0C8",
"^	c #00B6CE",
"/	c #00AFC6",
"(	c #00A3BB",
"_	c #009FB7",
":	c #00AFC7",
"<	c #00BED5",
"[	c #00C8DF",
"}	c #00C7DE",
"|	c #00BCD3",
"1	c #00ADC5",
"2	c #00C6DD",
"3	c #00D7ED",
"4	c #00D5EB",
"5	c #00A2BA",
"6	c #00B4CB",
"7	c #00C4DB",
"8	c #00D2E8",
"9	c #00D1E7",
"0	c #00C2D9",
"a	c #00B2C9",
"b	c #009DB5",
"c	c #00ACC3",
"d	c #00B9D0",
"e	c #00C1D8",
"f	c #00B8CF",
"g	c #00AAC2",
"h	c #009BB3",
"i	c #00A0B8",
"j	c #00ABC2",
"k	c #00B0C7",
"l	c #00A9C1",
"m	c #009AB2",
".....................",
"+++++++++++++++++++++",
"@###@@###@@###@@###@@",
"$%$$$$%$$$$%$$$$%$$$$",
"&****&==**&==**&****&",
"-;;;-=>>=-=>>=--;;;--",
",',,=>>>)=!~>>=,',,,,",
"{{{{=>>!]=^/(>={{{{{{",
"{{{{{=_:<[}|1={{{{{{{",
"{{{{{{==234=={{{{{{{{",
"{{{{{=567890a={{{{{{{",
"{{{{=>bcd=efgh={{{{{{",
"{{{{=>>ij=kl_>={{{{{{",
"{{{{{=>>={=m>={{{{{{{",
"{{{{{{=={{{=={{{{{{{{",
"{{{{{{{{{{{{{{{{{{{{{",
"{{{{{{{{{{{{{{{{{{{{{",
"{{{{{{{{{{{{{{{{{{{{{",
"{{{{{{{{{{{{{{{{{{{{{",
"{{{{{{{{{{{{{{{{{{{{{",
"....................."};
