/* XPM */
static char * hilite_xpm[] = {
"21 21 26 1",
" 	c None",
".	c #6A6A6A",
"+	c #696969",
"@	c #686868",
"#	c #676767",
"$	c #656565",
"%	c #646464",
"&	c #636363",
"*	c #626262",
"=	c #616161",
"-	c #5F5F5F",
";	c #5E5E5E",
">	c #5D5D5D",
",	c #5C5C5C",
"'	c #5B5B5B",
")	c #595959",
"!	c #585858",
"~	c #575757",
"{	c #565656",
"]	c #555555",
"^	c #535353",
"/	c #525252",
"(	c #515151",
"_	c #505050",
":	c #4F4F4F",
"<	c #4D4D4D",
".....................",
".....................",
"......+++++@@@@@@####",
"$%%%%%&&&&&&******===",
"--;;;;;>>>>>>,,,,,'''",
"))!!!!!!~~~~~{{{{{{]]",
"^^^//////(((((______:",
"<<<<<<<<<<<<<<<<<<<<<",
"<<<<<<<<<<<<<<<<<<<<<",
"<<<<<<<<<<<<<<<<<<<<<",
"<<<<<<<<<<<<<<<<<<<<<",
"<<<<<<<<<<<<<<<<<<<<<",
"<<<<<<<<<<<<<<<<<<<<<",
"<<<<<<<<<<<<<<<<<<<<<",
"<<<<<<<<<<<<<<<<<<<<<",
"<<<<<<<<<<<<<<<<<<<<<",
"<<<<<<<<<<<<<<<<<<<<<",
"<<<<<<<<<<<<<<<<<<<<<",
"<<<<<<<<<<<<<<<<<<<<<",
"<<<<<<<<<<<<<<<<<<<<<",
"<<<<<<<<<<<<<<<<<<<<<"};
