/* XPM */
static char * stick_xpm[] = {
"21 21 4 1",
" 	c None",
".	c #2C2C2C",
"+	c #262626",
"@	c #FFFFFF",
".....................",
".....................",
".....................",
".....................",
".....................",
".....................",
".....................",
".....................",
".....................",
"........++++.........",
"........+@@+.........",
"+++++++++@@++++++++++",
"+++++++++++++++++++++",
"+++++++++++++++++++++",
"+++++++++++++++++++++",
"+++++++++++++++++++++",
"+++++++++++++++++++++",
"+++++++++++++++++++++",
"+++++++++++++++++++++",
"+++++++++++++++++++++",
"+++++++++++++++++++++"};
